<?xml version="1.0" encoding="UTF-8" standalone="no"?>
<svg xmlns:dc="http://purl.org/dc/elements/1.1/" xmlns:cc="http://creativecommons.org/ns#" xmlns:rdf="http://www.w3.org/1999/02/22-rdf-syntax-ns#" xmlns:svg="http://www.w3.org/2000/svg" xmlns="http://www.w3.org/2000/svg" xmlns:xlink="http://www.w3.org/1999/xlink" xmlns:sodipodi="http://sodipodi.sourceforge.net/DTD/sodipodi-0.dtd" xmlns:inkscape="http://www.inkscape.org/namespaces/inkscape" inkscape:version="1.0 (4035a4f, 2020-05-01)" inkscape:export-ydpi="144.56" inkscape:export-xdpi="144.56" inkscape:export-filename="/Users/yoshi/Development/SVN/SSRQ/internal/ssrq-logo/PNG/SSRQ-2020-512.png" sodipodi:docname="SSRQ-2020-final-optimized.svg" id="svg844" viewBox="0 0 339.09575 334.64566" height="340" width="340" version="1.1">
  <sodipodi:namedview inkscape:current-layer="svg844" inkscape:window-maximized="0" inkscape:window-y="23" inkscape:window-x="0" inkscape:cy="170" inkscape:cx="170" inkscape:zoom="1.9647059" showgrid="false" id="namedview846" inkscape:window-height="963" inkscape:window-width="1367" inkscape:pageshadow="2" inkscape:pageopacity="0" guidetolerance="10" gridtolerance="10" objecttolerance="10" borderopacity="1" bordercolor="#666666" pagecolor="#ffffff"/>
  <metadata id="metadata833">
    <rdf:RDF>
      <cc:Work>
        <dc:format>image/svg+xml</dc:format>
        <dc:type rdf:resource="http://purl.org/dc/dcmitype/StillImage"/>
        <dc:rights>
          <cc:Agent>
            <dc:title>Copyright 2020 SSRQ-SDS-FDS. All rights reserved.</dc:title>
          </cc:Agent>
        </dc:rights>
        <dc:title/>
      </cc:Work>
    </rdf:RDF>
  </metadata>
  <defs id="defs840">
    <linearGradient id="linearGradient12038">
      <stop id="stop834" style="stop-color:#ffffff;stop-opacity:1" offset="0"/>
      <stop id="stop836" style="stop-color:#ffffff;stop-opacity:1" offset="1"/>
    </linearGradient>
    <linearGradient xlink:href="#linearGradient12038" id="linearGradient1003" x1="200.19727" y1="107.33594" x2="200.19727" y2="318.06903" gradientUnits="userSpaceOnUse" gradientTransform="translate(-25.321892,-18.268252)"/>
  </defs>
  <path id="path842" style="display:inline;opacity:1;fill:url(#linearGradient1003);fill-opacity:1;stroke:none;paint-order:normal" d="m 138.89491,2.593076 -0.91992,86.474612 h 6.80273 l 0.91992,-86.402346 z m 5.88281,86.474612 -1.50586,141.642582 -6.80273,-0.0723 1.50586,-141.570312 H 120.391 l 14.48047,149.332032 -6.77148,0.6582 L 113.55506,89.067658 H 93.996471 L 127.3617,247.0618 120.70545,248.46805 87.101941,89.344998 c -8.497173,1.45077 -14.931645,8.79939 -14.931645,17.722662 v 5.22265 l 48.425784,144.7168 -6.45117,2.1582 -41.974614,-125.4375 v 44.33008 l 42.380864,89.75 -6.15235,2.9043 -36.228514,-76.72266 V 313.9036 c 0,9.97199 8.028005,18 18.000005,18 H 296.52772 c 9.972,0 18,-8.02801 18,-18 V 107.06769 c 0,-9.972002 -8.028,-18.000002 -18,-18.000002 h -18.91211 l 0.0918,0.0664 -74.81641,104.388682 80.05469,-90.45899 5.0957,4.50781 -70.5293,79.69336 72.00391,-65.55468 4.58008,5.03125 -66.66797,60.69531 66.29688,-47.70508 3.97265,5.52344 -59.29687,42.66797 57.66015,-31.09375 3.22852,5.98828 -53.63086,28.92187 51.06055,-18.6875 2.33789,6.38867 -46.10157,16.8711 42.78907,-7.22266 0.01,0.0566 0.63867,-0.10742 1.12891,6.70898 -40.35352,6.78907 36.00391,1.60937 -0.30469,6.79688 -31.88672,-1.42774 28.20899,9.78125 -2.22852,6.42774 -25.73632,-8.92188 22.60156,17.07813 -4.10156,5.42773 -17.50196,-13.22656 14.64453,22.50781 -5.70117,3.71094 -11.07226,-17.01758 7.94531,26.96875 -6.52735,1.92188 -4.76757,-16.18164 1.17578,27.02734 -6.79688,0.29492 -0.51953,-11.96484 -2.11719,20.55859 -6.76757,-0.69726 0.42578,-4.13477 -3.07618,13.33594 -6.34179,-1.46289 -2.21094,7.22265 -5.24609,-1.60547 -2.77149,6.93555 -6.31836,-2.52539 31.94141,-79.94922 0.17578,-1.71094 -1.16406,-3.95507 -0.87305,-1.3418 -5.88476,-4.44531 -8.16602,-2.83203 0.002,-0.006 -0.01,0.002 -0.44922,-2.66406 -5.38086,1.96875 -1.19336,-3.25782 -5.00977,2.70118 -1.72656,-3.20118 -3.77734,2.71875 -2.58399,-3.59375 -4.36328,3.97266 -3.16211,-3.47656 -3.95312,4.46679 -4.23438,-3.74804 -3.22265,4.49609 -4.81055,-3.44726 -2.76367,4.81445 -5.72656,-3.28906 -2.8379,6.31054 -6.20507,-2.78906 53.79101,-119.652342 H 210.5141 L 168.56683,214.78826 162.11371,212.63592 203.34222,89.067558 H 189.23089 L 159.95355,219.20818 153.31488,217.71404 182.25824,89.067558 H 167.49261 L 151.4516,224.48553 144.69574,223.68474 160.643,89.067558 Z m 15.86523,0 h 6.84961 l 9.53711,-80.505862 -6.75586,-0.798828 z m 21.61524,0 h 6.97265 l 15.71875,-69.86719 -6.63671,-1.494141 z m 21.08398,0 h 7.17188 l 18.50781,-55.472659 -6.45313,-2.154297 z m 21.25,0 h 7.45899 l 17.34179,-38.574221 -6.20507,-2.789063 z m 7.45899,0 L 180.6742,203.35089 246.27772,89.067688 Z m 14.22656,0 h 7.8457 l 11.35547,-19.783206 -5.90039,-3.386718 z m 7.8457,0 -61.41015,106.976562 76.67187,-106.976562 z m 15.26172,0 h 8.23047 l -5.4375,-3.89649 z M 72.170296,193.98956 V 178.05792 L 11.139046,48.809873 4.9867022,51.71417 Z m 0,-60.26172 v -21.4375 L 43.205452,25.729795 36.75428,27.889951 Z M 87.101941,89.345028 c 0.99865,-0.1705 2.01963,-0.27734 3.06836,-0.27734 h 3.82617 L 77.435918,10.653623 70.77967,12.05792 Z m 26.453119,-0.27734 h 6.83594 l -8.33398,-85.931643 -6.77149,0.65625 z"/>
</svg>
